<svg>
<symbol id="icon-search" xmlns="http://www.w3.org/2000/svg" viewBox="0 0 24 24"><path  d="M9.5 3A6.5 6.5 0 0 1 16 9.5c0 1.61-.59 3.09-1.56 4.23l.27.27h.79l5 5l-1.5 1.5l-5-5v-.79l-.27-.27A6.516 6.516 0 0 1 9.5 16A6.5 6.5 0 0 1 3 9.5A6.5 6.5 0 0 1 9.5 3m0 2C7 5 5 7 5 9.5S7 14 9.5 14S14 12 14 9.5S12 5 9.5 5Z"/></symbol>
<symbol id="icon-user" xmlns="http://www.w3.org/2000/svg" viewBox="0 0 24 24"><path d="M12 4a4 4 0 0 1 4 4a4 4 0 0 1-4 4a4 4 0 0 1-4-4a4 4 0 0 1 4-4m0 2a2 2 0 0 0-2 2a2 2 0 0 0 2 2a2 2 0 0 0 2-2a2 2 0 0 0-2-2m0 7c2.67 0 8 1.33 8 4v3H4v-3c0-2.67 5.33-4 8-4m0 1.9c-2.97 0-6.1 1.46-6.1 2.1v1.1h12.2V17c0-.64-3.13-2.1-6.1-2.1Z"/></symbol>
<symbol id="icon-heart" xmlns="http://www.w3.org/2000/svg" viewBox="0 0 24 24"><path d="m12.1 18.55l-.1.1l-.11-.1C7.14 14.24 4 11.39 4 8.5C4 6.5 5.5 5 7.5 5c1.54 0 3.04 1 3.57 2.36h1.86C13.46 6 14.96 5 16.5 5c2 0 3.5 1.5 3.5 3.5c0 2.89-3.14 5.74-7.9 10.05M16.5 3c-1.74 0-3.41.81-4.5 2.08C10.91 3.81 9.24 3 7.5 3C4.42 3 2 5.41 2 8.5c0 3.77 3.4 6.86 8.55 11.53L12 21.35l1.45-1.32C18.6 15.36 22 12.27 22 8.5C22 5.41 19.58 3 16.5 3Z"/></symbol>
<symbol id="icon-bag" xmlns="http://www.w3.org/2000/svg" viewBox="0 0 24 24"><path d="M19 6h-2c0-2.8-2.2-5-5-5S7 3.2 7 6H5c-1.1 0-2 .9-2 2v12c0 1.1.9 2 2 2h14c1.1 0 2-.9 2-2V8c0-1.1-.9-2-2-2m-7-3c1.7 0 3 1.3 3 3H9c0-1.7 1.3-3 3-3m7 17H5V8h14v12m-7-8c-1.7 0-3-1.3-3-3H7c0 2.8 2.2 5 5 5s5-2.2 5-5h-2c0 1.7-1.3 3-3 3Z"/></symbol>
<symbol id="icon-burger" xmlns="http://www.w3.org/2000/svg" viewBox="0 0 24 24"><path stroke-linecap="round" stroke-linejoin="round" d="M3 6.001h18m-18 6h18m-18 6h18"/></symbol>
<symbol id="icon-close" xmlns="http://www.w3.org/2000/svg" viewBox="0 0 24 24"><path stroke-linecap="round" stroke-linejoin="round" d="m7 7l10 10M7 17L17 7"/></symbol>
<symbol id="icon-add-mail" xmlns="http://www.w3.org/2000/svg" viewBox="0 0 24 24"><path d="M13 19c0-.34.04-.67.09-1H4V8l8 5l8-5v5.09c.72.12 1.39.37 2 .72V6c0-1.1-.9-2-2-2H4c-1.1 0-2 .9-2 2v12c0 1.1.9 2 2 2h9.09c-.05-.33-.09-.66-.09-1m7-13l-8 5l-8-5h16m0 9v3h3v2h-3v3h-2v-3h-3v-2h3v-3h2Z"/></symbol>
<symbol id="icon-call" xmlns="http://www.w3.org/2000/svg" viewBox="0 0 24 24"><g fill="none"><path stroke="#fff" stroke-linecap="round" stroke-width="1.5" d="M13.5 2s2.334.212 5.303 3.182c2.97 2.97 3.182 5.303 3.182 5.303m-7.778-4.949s.99.282 2.475 1.767c1.485 1.485 1.768 2.475 1.768 2.475"/><path fill="#fff" d="m15.1 15.027l-.543-.516l.544.516Zm.456-.48l.544.517l-.544-.516Zm2.417-.335l-.374.65l.374-.65Zm1.91 1.1l-.374.65l.374-.65Zm.539 3.446l.543.517l-.543-.517Zm-1.42 1.496l-.545-.517l.544.517Zm-1.326.71l.074.745l-.074-.746Zm-9.86-4.489l.543-.516l-.544.516Zm-4.813-9.51l-.749.041l.749-.04Zm6.475 1.538l.543.517l-.543-.517Zm.156-2.81l.613-.433l-.613.433ZM8.374 3.91l-.613.433l.612-.433ZM5.26 3.609l.544.516l-.544-.516ZM3.691 5.26l-.543-.516l.544.516Zm7.372 7.795l.544-.517l-.544.517Zm4.582 2.488l.455-.48l-1.088-1.033l-.455.48l1.088 1.033Zm1.954-.682l1.91 1.1l.748-1.3l-1.91-1.1l-.748 1.3Zm2.279 3.38l-1.42 1.495l1.087 1.034l1.42-1.496l-1.087-1.033Zm-2.275 1.975c-1.435.141-5.18.02-9.244-4.258l-1.087 1.033c4.429 4.663 8.654 4.898 10.478 4.717l-.147-1.492Zm-9.244-4.258c-3.876-4.081-4.526-7.523-4.607-9.033l-1.498.08c.1 1.85.884 5.634 5.018 9.986l1.087-1.033Zm1.376-6.637l.286-.302l-1.087-1.033l-.287.302l1.088 1.033Zm.512-4.062L8.986 3.477l-1.225.866l1.26 1.783l1.226-.866Zm-5.53-2.168L3.149 4.745l1.088 1.033l1.57-1.653l-1.088-1.033Zm4.474 5.713a38.223 38.223 0 0 0-.545-.515l-.002.002l-.003.003a.822.822 0 0 0-.05.058a1.592 1.592 0 0 0-.23.427c-.098.275-.15.639-.084 1.093c.13.892.715 2.091 2.242 3.7l1.088-1.034c-1.428-1.503-1.78-2.428-1.846-2.884c-.032-.22 0-.335.013-.372l.008-.019a.249.249 0 0 1-.028.037a.705.705 0 0 1-.018.02s-.002 0-.545-.516Zm1.328 4.767c1.523 1.604 2.673 2.234 3.55 2.377c.451.073.816.014 1.092-.095a1.52 1.52 0 0 0 .421-.25a.922.922 0 0 0 .036-.034l.014-.014a.369.369 0 0 0 .007-.006l.003-.003l.001-.002s.002-.001-.542-.518c-.544-.516-.543-.517-.543-.518l.002-.001l.002-.003a.241.241 0 0 0 .005-.005l.01-.01a.446.446 0 0 1 .037-.032c.01-.006.009-.004-.004.001c-.02.008-.11.04-.3.009c-.402-.066-1.27-.42-2.703-1.929l-1.088 1.033ZM8.986 3.477C7.972 2.043 5.944 1.8 4.718 3.092l1.087 1.033c.523-.55 1.444-.507 1.956.218l1.225-.866ZM3.752 6.926c-.022-.4.152-.8.484-1.148L3.148 4.745c-.536.564-.943 1.347-.894 2.261l1.498-.08Zm14.705 12.811c-.279.294-.57.452-.854.48l.147 1.492c.747-.073 1.352-.472 1.795-.939l-1.088-1.032ZM10.021 9.02c.968-1.019 1.036-2.613.226-3.76l-1.225.866c.422.597.357 1.392-.088 1.86L10.02 9.02Zm9.488 6.942c.821.473.982 1.635.369 2.28l1.087 1.033c1.305-1.374.925-3.673-.707-4.613l-.749 1.3Zm-3.409-.898c.385-.406.986-.497 1.499-.202l.748-1.3c-1.099-.632-2.46-.45-3.335.47l1.088 1.032Z"/></g></symbol>


</svg>