<svg>
<symbol id="icon-search" xmlns="http://www.w3.org/2000/svg" viewBox="0 0 24 24"><path  d="M9.5 3A6.5 6.5 0 0 1 16 9.5c0 1.61-.59 3.09-1.56 4.23l.27.27h.79l5 5l-1.5 1.5l-5-5v-.79l-.27-.27A6.516 6.516 0 0 1 9.5 16A6.5 6.5 0 0 1 3 9.5A6.5 6.5 0 0 1 9.5 3m0 2C7 5 5 7 5 9.5S7 14 9.5 14S14 12 14 9.5S12 5 9.5 5Z"/></symbol>
<symbol id="icon-user" xmlns="http://www.w3.org/2000/svg" viewBox="0 0 24 24"><path d="M12 4a4 4 0 0 1 4 4a4 4 0 0 1-4 4a4 4 0 0 1-4-4a4 4 0 0 1 4-4m0 2a2 2 0 0 0-2 2a2 2 0 0 0 2 2a2 2 0 0 0 2-2a2 2 0 0 0-2-2m0 7c2.67 0 8 1.33 8 4v3H4v-3c0-2.67 5.33-4 8-4m0 1.9c-2.97 0-6.1 1.46-6.1 2.1v1.1h12.2V17c0-.64-3.13-2.1-6.1-2.1Z"/></symbol>
<symbol id="icon-heart" xmlns="http://www.w3.org/2000/svg" viewBox="0 0 24 24"><path d="m12.1 18.55l-.1.1l-.11-.1C7.14 14.24 4 11.39 4 8.5C4 6.5 5.5 5 7.5 5c1.54 0 3.04 1 3.57 2.36h1.86C13.46 6 14.96 5 16.5 5c2 0 3.5 1.5 3.5 3.5c0 2.89-3.14 5.74-7.9 10.05M16.5 3c-1.74 0-3.41.81-4.5 2.08C10.91 3.81 9.24 3 7.5 3C4.42 3 2 5.41 2 8.5c0 3.77 3.4 6.86 8.55 11.53L12 21.35l1.45-1.32C18.6 15.36 22 12.27 22 8.5C22 5.41 19.58 3 16.5 3Z"/></symbol>
<symbol id="icon-bag" xmlns="http://www.w3.org/2000/svg" viewBox="0 0 24 24"><path d="M19 6h-2c0-2.8-2.2-5-5-5S7 3.2 7 6H5c-1.1 0-2 .9-2 2v12c0 1.1.9 2 2 2h14c1.1 0 2-.9 2-2V8c0-1.1-.9-2-2-2m-7-3c1.7 0 3 1.3 3 3H9c0-1.7 1.3-3 3-3m7 17H5V8h14v12m-7-8c-1.7 0-3-1.3-3-3H7c0 2.8 2.2 5 5 5s5-2.2 5-5h-2c0 1.7-1.3 3-3 3Z"/></symbol>
<svg id="icon-burger" xmlns="http://www.w3.org/2000/svg" viewBox="0 0 24 24"><path stroke-linecap="round" stroke-linejoin="round" d="M3 6.001h18m-18 6h18m-18 6h18"/></svg>
<svg id="icon-close" xmlns="http://www.w3.org/2000/svg" viewBox="0 0 24 24"><path stroke-linecap="round" stroke-linejoin="round" d="m7 7l10 10M7 17L17 7"/></svg>
<svg id="icon-add-mail" xmlns="http://www.w3.org/2000/svg" viewBox="0 0 24 24"><path d="M13 19c0-.34.04-.67.09-1H4V8l8 5l8-5v5.09c.72.12 1.39.37 2 .72V6c0-1.1-.9-2-2-2H4c-1.1 0-2 .9-2 2v12c0 1.1.9 2 2 2h9.09c-.05-.33-.09-.66-.09-1m7-13l-8 5l-8-5h16m0 9v3h3v2h-3v3h-2v-3h-3v-2h3v-3h2Z"/></svg>
</svg>